<?xml version="1.0" encoding="utf-8"?>
<!-- Generator: Adobe Illustrator 17.1.0, SVG Export Plug-In . SVG Version: 6.00 Build 0)  -->
<!DOCTYPE svg PUBLIC "-//W3C//DTD SVG 1.1//EN" "http://www.w3.org/Graphics/SVG/1.1/DTD/svg11.dtd">
<svg version="1.1"
	 id="svg3875" sodipodi:docname="A.svg" inkscape:version="0.48.5 r10040" xmlns:rdf="http://www.w3.org/1999/02/22-rdf-syntax-ns#" xmlns:svg="http://www.w3.org/2000/svg" xmlns:cc="http://creativecommons.org/ns#" xmlns:inkscape="http://www.inkscape.org/namespaces/inkscape" xmlns:dc="http://purl.org/dc/elements/1.1/" xmlns:sodipodi="http://sodipodi.sourceforge.net/DTD/sodipodi-0.dtd"
	 xmlns="http://www.w3.org/2000/svg" xmlns:xlink="http://www.w3.org/1999/xlink" x="0px" y="0px" viewBox="0 0 1000 170.8"
	 enable-background="new 0 0 1000 170.8" xml:space="preserve">
<sodipodi:namedview  inkscape:window-height="1025" inkscape:document-units="px" inkscape:pageshadow="2" inkscape:current-layer="layer1" fit-margin-bottom="0.5" fit-margin-right="0.5" inkscape:window-x="859" inkscape:window-y="-8" inkscape:window-maximized="0" inkscape:window-width="1059" inkscape:pageopacity="0.0" inkscape:zoom="0.56601563" bordercolor="#666666" pagecolor="#ffffff" fit-margin-left="0.5" inkscape:cy="-125.08785" borderopacity="1.0" id="base" fit-margin-top="0.5" showgrid="false" inkscape:cx="682.86">
	</sodipodi:namedview>
<g id="layer1" transform="translate(-730.18288,-338.50441)" inkscape:groupmode="layer" inkscape:label="Layer 1">
	<g id="g3054" transform="matrix(7.0874423,0,0,7.0874423,-1679.0475,-2226.3363)">
		<path id="path2998" inkscape:connector-curvature="0" sodipodi:nodetypes="cccccccccccccc" fill="#FFFFFF" d="M358,370.4h-8.5v2.5
			h6c-0.3,3.5-3.3,5.1-6,5.1c-3.6,0-6.7-2.8-6.7-6.7c0-3.8,3-6.8,6.7-6.8c2.9,0,4.6,1.8,4.6,1.8l1.8-1.8c0,0-2.3-2.5-6.4-2.5
			c-5.3,0-9.4,4.5-9.4,9.3c0,4.7,3.8,9.3,9.5,9.3c5,0,8.6-3.4,8.6-8.4C358.1,371,358,370.4,358,370.4L358,370.4z"/>
		<path id="path3000" inkscape:connector-curvature="0" fill="#FFFFFF" d="M365,368.6c-3.5,0-6,2.7-6,5.9c0,3.2,2.4,6,6,6
			c3.3,0,6-2.5,6-6C370.9,370.6,367.8,368.6,365,368.6z M365,370.9c1.7,0,3.4,1.4,3.4,3.6c0,2.2-1.6,3.6-3.4,3.6
			c-1.9,0-3.4-1.5-3.4-3.6C361.6,372.5,363.1,370.9,365,370.9z"/>
		<path id="path3005" inkscape:connector-curvature="0" fill="#FFFFFF" d="M378,368.6c-3.5,0-6,2.7-6,5.9c0,3.2,2.4,6,6,6
			c3.3,0,6-2.5,6-6C384,370.6,380.9,368.6,378,368.6z M378,370.9c1.7,0,3.4,1.4,3.4,3.6c0,2.2-1.6,3.6-3.4,3.6
			c-1.9,0-3.4-1.5-3.4-3.6C374.6,372.5,376.1,370.9,378,370.9z"/>
		<path id="path3007" inkscape:connector-curvature="0" fill="#FFFFFF" d="M390.8,368.6c-3.2,0-5.7,2.8-5.7,6c0,3.6,2.9,6,5.7,6
			c1.7,0,2.6-0.7,3.3-1.5v1.2c0,2.1-1.3,3.3-3.1,3.3c-1.8,0-2.7-1.4-3.1-2.1l-2.3,1c0.8,1.7,2.5,3.5,5.4,3.5c3.2,0,5.6-2,5.6-6.2
			V369H394v1C393.3,369.1,392.2,368.6,390.8,368.6L390.8,368.6z M391.1,370.9c1.6,0,3.2,1.3,3.2,3.6c0,2.3-1.6,3.6-3.2,3.6
			c-1.7,0-3.3-1.4-3.3-3.6C387.7,372.3,389.4,370.9,391.1,370.9z"/>
		<path id="path3011" inkscape:connector-curvature="0" fill="#FFFFFF" d="M407.7,368.6c-3,0-5.6,2.4-5.6,6c0,3.8,2.8,6,5.9,6
			c2.5,0,4.1-1.4,5-2.6l-2.1-1.4c-0.5,0.8-1.4,1.6-2.9,1.6c-1.7,0-2.5-0.9-2.9-1.8l8-3.3l-0.4-1
			C411.9,370.2,410.1,368.6,407.7,368.6L407.7,368.6z M407.8,370.9c1.1,0,1.9,0.6,2.2,1.3l-5.3,2.2
			C404.4,372.7,406.1,370.9,407.8,370.9L407.8,370.9z"/>
		<path id="path3015" inkscape:connector-curvature="0" fill="#FFFFFF" d="M398.3,380.2h2.6v-17.6h-2.6V380.2z"/>
	</g>
	<g id="flowRoot3076" transform="matrix(3.8867005,0,0,3.8867005,106.50862,-1432.8974)">
		<path id="path3928" inkscape:connector-curvature="0" fill="#FFFFFF" d="M387.4,489.6c-2.5,0-4.7-1-6.6-3s-2.8-4.5-2.8-7.4
			c0-3,0.9-5.4,2.8-7.4c1.8-2,4-3,6.6-3c1.5,0,2.8,0.3,4,1c1.2,0.6,2.1,1.4,2.7,2.4h0.2l-0.2-2.7v-9h3.7V489h-3.5v-2.7h-0.2
			c-0.6,1-1.5,1.8-2.7,2.4C390.3,489.3,388.9,489.6,387.4,489.6z M388,486.2c1.7,0,3.2-0.6,4.4-1.9c1.2-1.3,1.8-3,1.8-5.2
			c0-2.2-0.6-3.9-1.8-5.2c-1.2-1.3-2.7-1.9-4.4-1.9c-1.7,0-3.2,0.6-4.4,1.9c-1.2,1.3-1.8,3-1.8,5.1c0,2.1,0.6,3.8,1.8,5.1
			C384.9,485.6,386.3,486.2,388,486.2z"/>
		<path id="path3920" inkscape:connector-curvature="0" fill="#FFFFFF" d="M314,489h-3.7v-25.1h-8v-3.5H322v3.5h-8V489z"/>
		<path id="path3922" inkscape:connector-curvature="0" fill="#FFFFFF" d="M326.5,489h-3.7v-19.6h3.5v3.2h0.2
			c0.4-1.1,1.1-1.9,2.3-2.6c1.2-0.7,2.3-1,3.4-1c1.1,0,2,0.2,2.8,0.5l-1.4,3.4c-0.5-0.2-1.1-0.3-2-0.3c-1.3,0-2.5,0.5-3.5,1.6
			c-1,1.1-1.5,2.4-1.5,4.1V489z"/>
		<path id="path3924" inkscape:connector-curvature="0" fill="#FFFFFF" d="M344.8,489.6c-3,0-5.4-1-7.2-3s-2.8-4.5-2.8-7.5
			c0-2.9,0.9-5.3,2.7-7.4c1.8-2.1,4.1-3.1,6.9-3.1c2.9,0,5.2,0.9,7,2.8c1.7,1.9,2.6,4.4,2.6,7.6l0,0.7h-15.5c0.1,2,0.8,3.5,2,4.7
			s2.6,1.7,4.3,1.7c2.6,0,4.4-1.1,5.4-3.4l3.3,1.4c-0.6,1.5-1.7,2.8-3.2,3.8C348.7,489.1,346.9,489.6,344.8,489.6L344.8,489.6z
			 M350.1,476.8c-0.1-1.1-0.6-2.2-1.5-3.2c-0.9-1-2.4-1.5-4.2-1.5c-1.4,0-2.5,0.4-3.5,1.3c-1,0.9-1.7,2-2.1,3.4H350.1z"/>
		<path id="path3926" inkscape:connector-curvature="0" fill="#FFFFFF" d="M361.1,469.4v2.7h0.2c0.5-0.9,1.4-1.7,2.5-2.4
			c1.1-0.7,2.4-1,3.7-1c2.4,0,4.3,0.7,5.6,2.2c1.3,1.5,1.9,3.5,1.9,6v12h-3.7v-11.4c0-3.6-1.6-5.4-4.8-5.4c-1.5,0-2.8,0.6-3.7,1.8
			c-1,1.2-1.4,2.6-1.4,4.2V489h-3.7v-19.6H361.1z"/>
		<path id="path3930" inkscape:connector-curvature="0" fill="#FFFFFF" d="M409.9,489.6c-2.2,0-4-0.5-5.4-1.6
			c-1.4-1.1-2.5-2.4-3.1-4l3.3-1.4c1,2.5,2.8,3.7,5.3,3.7c1.1,0,2.1-0.3,2.8-0.8c0.7-0.5,1.1-1.2,1.1-2c0-1.3-0.9-2.1-2.7-2.6l-4-1
			c-1.3-0.3-2.4-0.9-3.6-1.8s-1.7-2.1-1.7-3.6c0-1.7,0.8-3.1,2.3-4.2c1.5-1.1,3.4-1.6,5.5-1.6c1.7,0,3.3,0.4,4.6,1.2
			c1.4,0.8,2.3,1.9,2.9,3.4l-3.2,1.3c-0.7-1.7-2.2-2.6-4.5-2.6c-1.1,0-2,0.2-2.8,0.7c-0.7,0.5-1.1,1.1-1.1,1.8
			c0,1.1,0.9,1.9,2.6,2.3l3.9,0.9c1.8,0.4,3.2,1.2,4.1,2.2c0.9,1,1.3,2.2,1.3,3.5c0,1.8-0.7,3.2-2.2,4.4
			C414,489,412.2,489.6,409.9,489.6z"/>
	</g>
</g>
</svg>
